# xmcd
#
# Track frame offsets: 
#        150
#        8808
#        32309
#        49708
#        64841
#        79489
#        98240
#        117714
#        140928
#        154421
#
# Disc length: 2304 seconds
#
# Revision: 0
# Processed by: cddbd v1.5.2PL0 Copyright (c) Steve Scherf et al.
# Submitted via: ExactAudioCopy v0.95a2
#
DISCID=8b08fe0a
DTITLE=Skip James - Vanguard Visionaries
DYEAR=2007
DGENRE=Blues
TTITLE0=I'm So Glad
TTITLE1=Devil Got My Woman
TTITLE2=22-20 Blues
TTITLE3=Hard Time Killin' Floor Blues
TTITLE4=Look Down the Road
TTITLE5=Washington D.C. Hospital Center Blues
TTITLE6=Cypress Grove
TTITLE7=Special Rider Blues
TTITLE8=Look at the People Standing at the Judgement
TTITLE9=Sick Bed Blues
EXTD=
EXTT0=
EXTT1=
EXTT2=
EXTT3=
EXTT4=
EXTT5=
EXTT6=
EXTT7=
EXTT8=
EXTT9=
PLAYORDER=
